<mxfile host="app.diagrams.net" modified="2023-05-13T08:38:12.869Z" agent="Mozilla/5.0 (Windows NT 10.0; Win64; x64) AppleWebKit/537.36 (KHTML, like Gecko) Chrome/113.0.0.0 Safari/537.36" etag="KDlKeyXzo24OUBVmUEWW" version="21.3.0" type="github">
  <diagram id="H7qIi_OW2o1-ohgQtPF5" name="第 1 页">
    <mxGraphModel dx="1050" dy="541" grid="1" gridSize="10" guides="1" tooltips="1" connect="1" arrows="1" fold="1" page="1" pageScale="1" pageWidth="827" pageHeight="1169" math="0" shadow="0">
      <root>
        <mxCell id="0" />
        <mxCell id="1" parent="0" />
        <mxCell id="xV0khi6UBd_G9lYWXxbA-5" value="" style="edgeStyle=orthogonalEdgeStyle;rounded=0;orthogonalLoop=1;jettySize=auto;html=1;" edge="1" parent="1" source="UoIXUU_9wwTeBnw_Fink-1" target="xV0khi6UBd_G9lYWXxbA-4">
          <mxGeometry relative="1" as="geometry" />
        </mxCell>
        <mxCell id="UoIXUU_9wwTeBnw_Fink-1" value="&lt;font style=&quot;font-size: 18px;&quot;&gt;Input Image&lt;/font&gt;" style="text;html=1;strokeColor=none;fillColor=none;align=center;verticalAlign=middle;whiteSpace=wrap;rounded=0;" parent="1" vertex="1">
          <mxGeometry x="307.5" y="340" width="130" height="50" as="geometry" />
        </mxCell>
        <mxCell id="UoIXUU_9wwTeBnw_Fink-8" value="" style="html=1;verticalAlign=bottom;endArrow=open;dashed=1;endSize=8;rounded=0;fontSize=18;exitX=0.25;exitY=0;exitDx=0;exitDy=0;entryX=0.25;entryY=1;entryDx=0;entryDy=0;" parent="1" edge="1" target="xV0khi6UBd_G9lYWXxbA-4" source="xV0khi6UBd_G9lYWXxbA-2">
          <mxGeometry relative="1" as="geometry">
            <mxPoint x="510" y="240" as="sourcePoint" />
            <mxPoint x="380" y="240" as="targetPoint" />
          </mxGeometry>
        </mxCell>
        <mxCell id="UoIXUU_9wwTeBnw_Fink-12" value="Output" style="text;html=1;strokeColor=none;fillColor=none;align=center;verticalAlign=middle;whiteSpace=wrap;rounded=0;fontSize=18;" parent="1" vertex="1">
          <mxGeometry x="307.5" y="660" width="130" height="42.5" as="geometry" />
        </mxCell>
        <mxCell id="k2QbmRM9aS8AjSS8weyS-1" value="" style="html=1;verticalAlign=bottom;endArrow=open;dashed=1;endSize=8;rounded=0;fontSize=18;exitX=0.184;exitY=0.015;exitDx=0;exitDy=0;entryX=0.25;entryY=1;entryDx=0;entryDy=0;exitPerimeter=0;" parent="1" edge="1" target="xV0khi6UBd_G9lYWXxbA-2" source="UoIXUU_9wwTeBnw_Fink-12">
          <mxGeometry relative="1" as="geometry">
            <mxPoint x="350" y="650" as="sourcePoint" />
            <mxPoint x="660" y="240" as="targetPoint" />
          </mxGeometry>
        </mxCell>
        <mxCell id="xV0khi6UBd_G9lYWXxbA-9" style="edgeStyle=orthogonalEdgeStyle;rounded=0;orthogonalLoop=1;jettySize=auto;html=1;exitX=0.75;exitY=1;exitDx=0;exitDy=0;entryX=0.819;entryY=0;entryDx=0;entryDy=0;entryPerimeter=0;" edge="1" parent="1" source="xV0khi6UBd_G9lYWXxbA-2" target="UoIXUU_9wwTeBnw_Fink-12">
          <mxGeometry relative="1" as="geometry" />
        </mxCell>
        <mxCell id="xV0khi6UBd_G9lYWXxbA-2" value="Text&lt;br&gt;Recognition&lt;br&gt;Network" style="whiteSpace=wrap;html=1;fontSize=18;" vertex="1" parent="1">
          <mxGeometry x="290" y="540" width="165" height="70" as="geometry" />
        </mxCell>
        <mxCell id="xV0khi6UBd_G9lYWXxbA-6" style="edgeStyle=orthogonalEdgeStyle;rounded=0;orthogonalLoop=1;jettySize=auto;html=1;exitX=0.75;exitY=1;exitDx=0;exitDy=0;entryX=0.75;entryY=0;entryDx=0;entryDy=0;" edge="1" parent="1" source="xV0khi6UBd_G9lYWXxbA-4" target="xV0khi6UBd_G9lYWXxbA-2">
          <mxGeometry relative="1" as="geometry" />
        </mxCell>
        <mxCell id="xV0khi6UBd_G9lYWXxbA-4" value="Text&lt;br style=&quot;border-color: var(--border-color);&quot;&gt;Rectification&lt;br style=&quot;border-color: var(--border-color);&quot;&gt;Network" style="whiteSpace=wrap;html=1;fontSize=18;" vertex="1" parent="1">
          <mxGeometry x="290" y="420" width="165" height="70" as="geometry" />
        </mxCell>
        <mxCell id="xV0khi6UBd_G9lYWXxbA-7" value="&lt;font style=&quot;font-size: 18px;&quot;&gt;Rectified Image&lt;/font&gt;" style="text;html=1;strokeColor=none;fillColor=none;align=center;verticalAlign=middle;whiteSpace=wrap;rounded=0;" vertex="1" parent="1">
          <mxGeometry x="420" y="490" width="130" height="50" as="geometry" />
        </mxCell>
        <mxCell id="xV0khi6UBd_G9lYWXxbA-8" value="&lt;font style=&quot;font-size: 18px;&quot;&gt;gradient&lt;/font&gt;" style="text;html=1;strokeColor=none;fillColor=none;align=center;verticalAlign=middle;whiteSpace=wrap;rounded=0;" vertex="1" parent="1">
          <mxGeometry x="200" y="490" width="130" height="50" as="geometry" />
        </mxCell>
        <mxCell id="xV0khi6UBd_G9lYWXxbA-11" value="&lt;font style=&quot;font-size: 18px;&quot;&gt;gradient&lt;/font&gt;" style="text;html=1;strokeColor=none;fillColor=none;align=center;verticalAlign=middle;whiteSpace=wrap;rounded=0;" vertex="1" parent="1">
          <mxGeometry x="200" y="610" width="130" height="50" as="geometry" />
        </mxCell>
      </root>
    </mxGraphModel>
  </diagram>
</mxfile>
